<?xml version="1.0" standalone="no"?>
<!DOCTYPE svg PUBLIC "-//W3C//DTD SVG 20010904//EN"
 "http://www.w3.org/TR/2001/REC-SVG-20010904/DTD/svg10.dtd">
<svg version="1.0" xmlns="http://www.w3.org/2000/svg"
 width="260.000000pt" height="260.000000pt" viewBox="0 0 260.000000 260.000000"
 preserveAspectRatio="xMidYMid meet">
<metadata>
Created by potrace 1.11, written by Peter Selinger 2001-2013
</metadata>
<g transform="translate(0.000000,260.000000) scale(0.100000,-0.100000)"
fill="#000000" stroke="none">
<path d="M790 1701 c-141 -55 -226 -135 -275 -262 -35 -88 -34 -183 1 -270 29
-71 82 -148 102 -149 19 0 6 53 -24 98 -61 89 -70 229 -21 335 33 72 106 145
182 183 55 26 69 29 165 29 94 0 111 -3 165 -28 33 -16 70 -38 82 -49 31 -29
40 -16 20 26 -11 25 -31 41 -71 60 -30 14 -62 26 -70 26 -8 0 -18 5 -21 10
-11 17 -185 10 -235 -9z"/>
<path d="M1530 1701 c-85 -33 -130 -62 -185 -118 l-56 -56 -21 23 c-21 23 -22
23 -29 2 -5 -14 1 -36 19 -71 15 -28 30 -51 34 -51 5 0 17 20 29 44 27 58 99
125 174 162 55 26 69 29 165 29 94 0 111 -3 165 -28 33 -16 72 -40 88 -54 22
-22 27 -24 27 -9 0 38 -30 75 -84 100 -30 14 -62 26 -70 26 -8 0 -18 5 -21 10
-11 17 -185 10 -235 -9z"/>
<path d="M1975 1550 c-4 -6 8 -41 27 -78 31 -62 33 -74 33 -167 0 -88 -3 -107
-27 -155 -35 -71 -108 -142 -183 -177 -54 -25 -71 -28 -166 -28 -100 0 -109 2
-169 33 -35 18 -65 30 -67 28 -3 -2 2 -17 11 -33 13 -27 34 -39 124 -74 31
-12 199 -11 207 1 3 6 13 10 20 10 28 0 125 53 170 92 53 47 90 106 122 197
29 82 29 124 1 209 -35 110 -83 175 -103 142z"/>
<path d="M865 1493 c-28 -7 -81 -45 -104 -75 -48 -61 -48 -163 2 -230 49 -67
151 -95 232 -64 75 29 57 44 -33 27 -41 -8 -42 -8 -24 9 10 10 29 21 43 25 36
11 107 63 125 91 23 35 11 101 -27 147 -17 20 -35 37 -41 37 -6 0 -35 -22 -65
-50 -30 -27 -61 -50 -68 -50 -7 0 -15 -6 -18 -12 -2 -7 -7 -10 -11 -6 -7 5 8
28 40 62 20 21 45 76 39 86 -6 10 -55 12 -90 3z"/>
<path d="M1605 1493 c-37 -8 -98 -58 -119 -98 -83 -159 80 -335 249 -271 59
23 59 40 0 32 -36 -6 -45 -4 -45 7 0 8 12 18 27 21 35 9 110 62 129 91 20 31
11 91 -19 136 -37 55 -50 57 -95 18 -73 -64 -122 -96 -122 -79 0 5 3 10 8 10
13 0 84 119 77 130 -6 10 -50 11 -90 3z m70 -343 c-3 -5 -12 -10 -18 -10 -7 0
-6 4 3 10 19 12 23 12 15 0z"/>
<path d="M1265 1140 c-29 -65 -129 -151 -205 -178 -114 -39 -252 -26 -341 32
-44 29 -46 28 -23 -19 14 -31 29 -40 122 -76 27 -10 195 -12 205 -2 4 3 29 14
56 24 64 22 130 68 176 121 l37 43 27 -32 c45 -54 68 -39 35 22 -9 17 -25 47
-36 68 -10 20 -22 37 -27 37 -4 0 -16 -18 -26 -40z"/>
</g>
</svg>
